<?xml version="1.0" standalone="no"?>
<!DOCTYPE svg PUBLIC "-//W3C//DTD SVG 20010904//EN"
 "http://www.w3.org/TR/2001/REC-SVG-20010904/DTD/svg10.dtd">
<svg version="1.0" xmlns="http://www.w3.org/2000/svg"
 width="512.000000pt" height="512.000000pt" viewBox="0 0 512.000000 512.000000"
 preserveAspectRatio="xMidYMid meet">
<metadata>
Created by potrace 1.14, written by Peter Selinger 2001-2017
</metadata>
<g transform="translate(0.000000,512.000000) scale(0.100000,-0.100000)"
fill="#000000" stroke="none">
<path d="M880 5114 c-245 -37 -433 -132 -599 -303 -130 -134 -221 -306 -261
-496 -18 -86 -18 -163 -19 -1750 0 -1773 -1 -1726 49 -1875 30 -90 94 -215
143 -280 144 -193 380 -347 592 -386 11 -2 43 -8 70 -13 31 -6 676 -10 1705
-10 1575 -1 1659 0 1745 18 116 24 171 43 270 92 101 51 172 104 260 195 79
81 77 78 126 154 43 67 80 145 108 228 52 153 50 84 47 1902 -2 1827 1 1702
-51 1855 -51 152 -167 325 -283 422 -31 26 -59 51 -62 54 -3 3 -39 26 -80 51
-96 59 -210 104 -324 128 -87 18 -161 19 -1751 18 -913 0 -1671 -2 -1685 -4z"/>
</g>
</svg>
