<!-- https://www.svgrepo.com/svg/364604/instagram-logo-fill UND DANN IN FIGMA BEARBEITET WEGEN WHITESPACE -->
<svg width="25" height="25" viewBox="0 0 25 25" fill="none" xmlns="http://www.w3.org/2000/svg">
<path d="M16.34 12.5C16.34 13.2595 16.1148 14.0019 15.6928 14.6334C15.2709 15.2649 14.6712 15.7571 13.9695 16.0477C13.2678 16.3383 12.4957 16.4144 11.7509 16.2662C11.006 16.118 10.3217 15.7523 9.78471 15.2153C9.24768 14.6783 8.88195 13.994 8.73378 13.2491C8.58562 12.5043 8.66166 11.7322 8.9523 11.0305C9.24294 10.3288 9.73513 9.7291 10.3666 9.30716C10.9981 8.88521 11.7405 8.66 12.5 8.66C13.5181 8.66116 14.4941 9.06611 15.214 9.786C15.9339 10.5059 16.3388 11.4819 16.34 12.5ZM24.5 7.22V17.78C24.498 19.5616 23.7893 21.2697 22.5295 22.5295C21.2697 23.7893 19.5616 24.498 17.78 24.5H7.22C5.43836 24.498 3.73028 23.7893 2.47047 22.5295C1.21066 21.2697 0.502018 19.5616 0.5 17.78V7.22C0.502018 5.43836 1.21066 3.73028 2.47047 2.47047C3.73028 1.21066 5.43836 0.502018 7.22 0.5H17.78C19.5616 0.502018 21.2697 1.21066 22.5295 2.47047C23.7893 3.73028 24.498 5.43836 24.5 7.22ZM18.26 12.5C18.26 11.3608 17.9222 10.2471 17.2893 9.29991C16.6563 8.35269 15.7568 7.61441 14.7043 7.17845C13.6518 6.74249 12.4936 6.62843 11.3763 6.85068C10.2589 7.07293 9.23262 7.62151 8.42706 8.42706C7.62151 9.23262 7.07293 10.2589 6.85068 11.3763C6.62843 12.4936 6.74249 13.6518 7.17845 14.7043C7.61441 15.7568 8.35269 16.6563 9.29991 17.2893C10.2471 17.9222 11.3608 18.26 12.5 18.26C14.0271 18.2583 15.4912 17.6509 16.571 16.571C17.6509 15.4912 18.2583 14.0271 18.26 12.5ZM20.18 6.26C20.18 5.97519 20.0955 5.69679 19.9373 5.45998C19.7791 5.22317 19.5542 5.0386 19.2911 4.92961C19.0279 4.82062 18.7384 4.79211 18.4591 4.84767C18.1797 4.90323 17.9232 5.04038 17.7218 5.24177C17.5204 5.44315 17.3832 5.69974 17.3277 5.97907C17.2721 6.2584 17.3006 6.54794 17.4096 6.81106C17.5186 7.07419 17.7032 7.29909 17.94 7.45732C18.1768 7.61555 18.4552 7.7 18.74 7.7C19.1219 7.7 19.4882 7.54829 19.7582 7.27823C20.0283 7.00818 20.18 6.64191 20.18 6.26Z" fill="black"/>
</svg>
